<?xml version="1.0" encoding="UTF-8" standalone="no"?>
<svg
   id="svg12633"
   version="1.1"
   viewBox="0 0 15.847369 15.847362"
   height="15.847362mm"
   width="15.847369mm"
   sodipodi:docname="black-pawn.svg"
   inkscape:version="1.2.2 (732a01da63, 2022-12-09)"
   xmlns:inkscape="http://www.inkscape.org/namespaces/inkscape"
   xmlns:sodipodi="http://sodipodi.sourceforge.net/DTD/sodipodi-0.dtd"
   xmlns="http://www.w3.org/2000/svg"
   xmlns:svg="http://www.w3.org/2000/svg"
   xmlns:rdf="http://www.w3.org/1999/02/22-rdf-syntax-ns#"
   xmlns:cc="http://creativecommons.org/ns#"
   xmlns:dc="http://purl.org/dc/elements/1.1/">
  <sodipodi:namedview
     id="namedview52"
     pagecolor="#ffffff"
     bordercolor="#000000"
     borderopacity="0.25"
     inkscape:showpageshadow="2"
     inkscape:pageopacity="0.0"
     inkscape:pagecheckerboard="0"
     inkscape:deskcolor="#d1d1d1"
     inkscape:document-units="mm"
     showgrid="false"
     inkscape:zoom="4.8934489"
     inkscape:cx="-1.3283065"
     inkscape:cy="-15.939678"
     inkscape:window-width="2560"
     inkscape:window-height="1009"
     inkscape:window-x="-8"
     inkscape:window-y="-5"
     inkscape:window-maximized="1"
     inkscape:current-layer="svg12633" />
  <title
     id="title13821">chess board</title>
  <defs
     id="defs12627" />
  <metadata
     id="metadata12630">
    <rdf:RDF>
      <cc:Work
         rdf:about="">
        <dc:format>image/svg+xml</dc:format>
        <dc:type
           rdf:resource="http://purl.org/dc/dcmitype/StillImage" />
        <dc:title>chess board</dc:title>
        <dc:rights>
          <cc:Agent>
            <dc:title>CC0</dc:title>
          </cc:Agent>
        </dc:rights>
        <dc:creator>
          <cc:Agent>
            <dc:title>Glumbosch</dc:title>
          </cc:Agent>
        </dc:creator>
        <cc:license
           rdf:resource="http://creativecommons.org/publicdomain/zero/1.0/" />
      </cc:Work>
      <cc:License
         rdf:about="http://creativecommons.org/publicdomain/zero/1.0/">
        <cc:permits
           rdf:resource="http://creativecommons.org/ns#Reproduction" />
        <cc:permits
           rdf:resource="http://creativecommons.org/ns#Distribution" />
        <cc:permits
           rdf:resource="http://creativecommons.org/ns#DerivativeWorks" />
      </cc:License>
    </rdf:RDF>
  </metadata>
  <g
     style="stroke:#000000"
     transform="matrix(0.02325188,0,0,0.02325188,-8.6058429,-2.653323)"
     id="g6211">
    <path
       d="m 559.76,645.59 c -2.22,-13.35 -1.75,-39.94 0.95,-53.48 8.23,-41.36 32.37,-77.37 66.68,-99.5 10.97,-7.08 21.38,-12.03 36.5,-17.38 0.93,-0.33 -1.53,-2.1 -6.5,-4.68 -11.96,-6.21 -22.72,-17.3 -28.86,-29.73 -6.01,-12.17 -8,-21.41 -7.32,-33.98 0.97,-18.05 7.66,-32.94 20.68,-46.02 11.64,-11.7 30.03,-19.98 44.36,-19.98 h 5.03 l -5.44,-2.7 c -7.1,-3.51 -15.86,-12.34 -19.34,-19.46 -7.98,-16.38 -4.91,-35.67 7.68,-48.26 19.31,-19.31 54.11,-19.31 73.42,0 12.59,12.59 15.66,31.88 7.68,48.26 -3.47,7.12 -12.24,15.95 -19.33,19.46 l -5.45,2.7 h 5.04 c 14.33,0 32.71,8.28 44.35,19.98 13.02,13.08 19.71,27.97 20.69,46.02 0.68,12.57 -1.31,21.81 -7.32,33.98 -6.14,12.43 -16.91,23.52 -28.87,29.73 -4.97,2.58 -7.43,4.35 -6.5,4.68 15.13,5.35 25.53,10.3 36.5,17.38 34.32,22.13 58.45,58.14 66.68,99.5 2.7,13.54 3.17,40.13 0.95,53.48 l -1.37,8.25 H 710.89 561.14 Z"
       style="fill:#000000;stroke:#000000"
       id="path6209" />
  </g>
</svg>
