<?xml version="1.0" encoding="UTF-8" standalone="no"?>
<svg
   id="svg12633"
   version="1.1"
   viewBox="0 0 15.847364 15.847364"
   height="15.847363mm"
   width="15.847363mm"
   sodipodi:docname="black-knight.svg"
   inkscape:version="1.2.2 (732a01da63, 2022-12-09)"
   xmlns:inkscape="http://www.inkscape.org/namespaces/inkscape"
   xmlns:sodipodi="http://sodipodi.sourceforge.net/DTD/sodipodi-0.dtd"
   xmlns="http://www.w3.org/2000/svg"
   xmlns:svg="http://www.w3.org/2000/svg"
   xmlns:rdf="http://www.w3.org/1999/02/22-rdf-syntax-ns#"
   xmlns:cc="http://creativecommons.org/ns#"
   xmlns:dc="http://purl.org/dc/elements/1.1/">
  <sodipodi:namedview
     id="namedview38"
     pagecolor="#ffffff"
     bordercolor="#000000"
     borderopacity="0.25"
     inkscape:showpageshadow="2"
     inkscape:pageopacity="0.0"
     inkscape:pagecheckerboard="0"
     inkscape:deskcolor="#d1d1d1"
     inkscape:document-units="mm"
     showgrid="false"
     inkscape:zoom="4.8934483"
     inkscape:cx="91.040096"
     inkscape:cy="34.535974"
     inkscape:window-width="2560"
     inkscape:window-height="1009"
     inkscape:window-x="-8"
     inkscape:window-y="-5"
     inkscape:window-maximized="1"
     inkscape:current-layer="svg12633" />
  <title
     id="title13821">chess board</title>
  <defs
     id="defs12627" />
  <metadata
     id="metadata12630">
    <rdf:RDF>
      <cc:Work
         rdf:about="">
        <dc:format>image/svg+xml</dc:format>
        <dc:type
           rdf:resource="http://purl.org/dc/dcmitype/StillImage" />
        <dc:title>chess board</dc:title>
        <dc:rights>
          <cc:Agent>
            <dc:title>CC0</dc:title>
          </cc:Agent>
        </dc:rights>
        <dc:creator>
          <cc:Agent>
            <dc:title>Glumbosch</dc:title>
          </cc:Agent>
        </dc:creator>
        <cc:license
           rdf:resource="http://creativecommons.org/publicdomain/zero/1.0/" />
      </cc:Work>
      <cc:License
         rdf:about="http://creativecommons.org/publicdomain/zero/1.0/">
        <cc:permits
           rdf:resource="http://creativecommons.org/ns#Reproduction" />
        <cc:permits
           rdf:resource="http://creativecommons.org/ns#Distribution" />
        <cc:permits
           rdf:resource="http://creativecommons.org/ns#DerivativeWorks" />
      </cc:License>
    </rdf:RDF>
  </metadata>
  <g
     id="g2397"
     transform="matrix(0.02325188,0,0,0.02325188,-11.253755,-4.2089235)">
    <path
       id="path2396-0"
       style="fill:#000000"
       d="m 157.19,457.86 c -1.46,-13.67 1.35,-29.06 7.56,-41.36 5.12,-10.15 12.11,-18.38 33.98,-40 12.97,-12.83 23.85,-24.53 26.97,-29 10.14,-14.55 17.9,-32.54 21.66,-50.23 1.93,-9.07 2.52,-33.8 1.06,-44.05 l -0.83,-5.79 -6.17,4.39 c -11.51,8.18 -23.12,15 -43.83,25.77 -39.56,20.57 -46.31,26.67 -61.27,55.34 -8.36,16.02 -13.15,23.14 -19.08,28.37 -4.77,4.2 -11.75,7.2 -16.72,7.2 -6.569,0 -12.765,-6.19 -12.773,-12.75 l -0.004,-3.25 h -5.45 c -8.085,0 -15.238,-1.8 -22.774,-5.72 C 38.95,336.07 31.786,313.08 40.714,286.43 44.985,273.68 49.067,266.24 64.557,243 80.654,218.84 85.6,209.96 89.9,197.5 c 3.219,-9.33 3.279,-9.83 3.331,-27.5 0.067,-22.53 -0.059,-22.25 17.949,-40 15.06,-14.83 21.56,-23.86 21.56,-29.91 0,-2.162 -0.92,-15.136 -2.06,-28.832 -1.13,-13.697 -1.92,-25.999 -1.75,-27.339 0.3,-2.299 2.03,-1.407 30.92,15.938 l 30.6,18.373 18.19,-19.365 C 218.65,48.214 227.18,39.5 227.6,39.5 c 0.42,0 6.24,12.038 12.93,26.75 6.7,14.712 12.55,26.665 13.01,26.562 6.73,-1.52 20.93,-2.466 30.2,-2.01 35.46,1.741 65.89,15.428 91.5,41.148 23.65,23.75 39.07,51.15 54.08,96.05 20.99,62.83 34.72,142.81 37.08,216.05 l 0.66,20.45 H 312.48 157.9 Z"
       transform="translate(572.77,269.79)" />
    <path
       id="path2388-2"
       style="fill:#ffffff"
       d="m 126.72,187.21 c 6.43,-3.18 10.29,-6 16,-11.7 6.91,-6.9 15.02,-18.65 15.02,-21.76 0,-3.35 -9.35,-4.18 -15.51,-1.39 -5.49,2.5 -9.07,6.88 -18.28,22.37 -11.24,18.91 -10.86,18.09 -8.04,17.31 1.28,-0.35 6.15,-2.53 10.81,-4.83 z"
       transform="translate(572.77,269.79)" />
    <path
       id="path2386-0"
       style="fill:#ffffff"
       d="m 76.493,304.54 c 1.238,-1.83 2.25,-4.42 2.25,-5.74 0,-5.68 -5.572,-11.31 -11.2,-11.3 -4.351,0.01 -8.801,3.76 -11.528,9.72 -2.061,4.5 -2.693,7.72 -3.075,15.64 l -0.48,9.98 10.891,-7.48 c 5.991,-4.11 11.905,-8.98 13.142,-10.82 z"
       transform="translate(572.77,269.79)" />
    <path
       id="path2384-3"
       style="fill:#ffffff"
       d="m 458.38,454.95 c 2.51,-2.51 2.54,-2.71 1.89,-13.25 -3.64,-59.55 -10,-105.29 -22.14,-159.2 -10.28,-45.67 -20.78,-77.34 -34.5,-104 -9.03,-17.56 -18.01,-30.14 -30.38,-42.53 -19.28,-19.31 -40.06,-30.74 -66.59,-36.611 -18.53,-4.102 -53.48,-2.712 -58.9,2.341 -2.95,2.74 -2.43,8.42 0.99,10.96 2.38,1.77 3,1.79 12.5,0.36 37.43,-5.64 72.03,5.22 99.64,31.26 27.07,25.53 46.05,68.31 62.24,140.22 11.73,52.09 18.17,97.19 21.65,151.5 0.96,15.07 1.32,17.25 3.2,19.25 2.85,3.04 7.19,2.92 10.4,-0.3 z"
       transform="translate(572.77,269.79)" />
  </g>
</svg>
