<?xml version="1.0" encoding="UTF-8" standalone="no"?>
<svg
   id="svg12633"
   version="1.1"
   viewBox="0 0 15.847362 15.847358"
   height="15.847358mm"
   width="15.847362mm"
   sodipodi:docname="white-pawn.svg"
   inkscape:version="1.2.2 (732a01da63, 2022-12-09)"
   xmlns:inkscape="http://www.inkscape.org/namespaces/inkscape"
   xmlns:sodipodi="http://sodipodi.sourceforge.net/DTD/sodipodi-0.dtd"
   xmlns="http://www.w3.org/2000/svg"
   xmlns:svg="http://www.w3.org/2000/svg"
   xmlns:rdf="http://www.w3.org/1999/02/22-rdf-syntax-ns#"
   xmlns:cc="http://creativecommons.org/ns#"
   xmlns:dc="http://purl.org/dc/elements/1.1/">
  <sodipodi:namedview
     id="namedview40"
     pagecolor="#ffffff"
     bordercolor="#000000"
     borderopacity="0.25"
     inkscape:showpageshadow="2"
     inkscape:pageopacity="0.0"
     inkscape:pagecheckerboard="0"
     inkscape:deskcolor="#d1d1d1"
     inkscape:document-units="mm"
     showgrid="false"
     inkscape:zoom="4.89345"
     inkscape:cx="39.747009"
     inkscape:cy="29.427091"
     inkscape:window-width="2560"
     inkscape:window-height="1009"
     inkscape:window-x="-8"
     inkscape:window-y="-5"
     inkscape:window-maximized="1"
     inkscape:current-layer="svg12633" />
  <title
     id="title13821">chess board</title>
  <defs
     id="defs12627" />
  <metadata
     id="metadata12630">
    <rdf:RDF>
      <cc:Work
         rdf:about="">
        <dc:format>image/svg+xml</dc:format>
        <dc:type
           rdf:resource="http://purl.org/dc/dcmitype/StillImage" />
        <dc:title>chess board</dc:title>
        <dc:rights>
          <cc:Agent>
            <dc:title>CC0</dc:title>
          </cc:Agent>
        </dc:rights>
        <dc:creator>
          <cc:Agent>
            <dc:title>Glumbosch</dc:title>
          </cc:Agent>
        </dc:creator>
        <cc:license
           rdf:resource="http://creativecommons.org/publicdomain/zero/1.0/" />
      </cc:Work>
      <cc:License
         rdf:about="http://creativecommons.org/publicdomain/zero/1.0/">
        <cc:permits
           rdf:resource="http://creativecommons.org/ns#Reproduction" />
        <cc:permits
           rdf:resource="http://creativecommons.org/ns#Distribution" />
        <cc:permits
           rdf:resource="http://creativecommons.org/ns#DerivativeWorks" />
      </cc:License>
    </rdf:RDF>
  </metadata>
  <path
     id="path2558"
     style="fill:#000000;stroke-width:0.0232519"
     d="M 4.3733632,12.736638 C 4.2314802,12.679438 4.1723274,12.403438 4.1716996,11.795169 4.1711881,11.291766 4.2065542,11.072966 4.3655971,10.59514 4.6673135,9.6885488 5.3281319,8.9031002 6.1463656,8.4782884 L 6.3802795,8.3569136 6.262625,8.2611158 C 6.0117372,8.0567318 5.7885191,7.7042333 5.6871409,7.3528974 5.6438924,7.2024577 5.6341266,7.1138681 5.6352892,6.8773965 5.6366843,6.624881 5.6452875,6.5609384 5.7013246,6.389107 5.8766437,5.8526861 6.1838011,5.492282 6.6681377,5.2539502 L 6.8890306,5.1451314 6.7906751,4.9986446 C 6.5939642,4.7049733 6.5325793,4.3523353 6.6214015,4.023577 6.7199894,3.6577551 6.9173979,3.417354 7.2561778,3.2504287 c 0.4373678,-0.2156379 0.8977551,-0.2156379 1.3351229,0 0.3387799,0.1669253 0.5361884,0.4073264 0.6347764,0.7731483 0.088822,0.3287583 0.027437,0.6813963 -0.1692737,0.9750676 l -0.098356,0.1464868 0.2208929,0.1088188 c 0.4843366,0.2383318 0.791494,0.5987359 0.9668137,1.1351568 0.05604,0.1718314 0.06464,0.235774 0.06604,0.4882895 0.0012,0.2364716 -0.0086,0.3250612 -0.05185,0.4755009 C 10.058959,7.7042333 9.8357414,8.0567318 9.5848536,8.2611158 L 9.4671991,8.3569136 9.701113,8.4782884 c 0.818234,0.4248118 1.479052,1.2102604 1.780861,2.1168516 0.159043,0.477826 0.194386,0.696626 0.193689,1.200029 -4.65e-4,0.619663 -0.05953,0.886129 -0.208802,0.942864 -0.0751,0.02837 -7.0225331,0.02721 -7.0934513,-0.0014 z" />
  <path
     id="path2384-1"
     style="fill:#ffffff;stroke-width:0.0232519"
     d="m 11.24248,12.277646 c 0.0098,-0.03511 0.01721,-0.257399 0.01628,-0.494103 -0.0016,-0.479454 -0.04069,-0.726621 -0.175551,-1.108882 C 10.753028,9.7387728 9.9843209,8.9623925 9.0630814,8.634076 8.8314927,8.5517643 8.7891742,8.5213044 8.7708052,8.4236465 8.7482509,8.3025042 8.8001026,8.244607 9.0328539,8.1325329 9.7592427,7.7818946 10.023849,6.8797216 9.6097331,6.1654239 9.4974265,5.9717357 9.2351453,5.7331714 9.0135549,5.6234226 8.8284699,5.5318102 8.7322071,5.5071632 8.4097036,5.4697276 8.2901889,5.4557765 8.211365,5.3964842 8.1878806,5.3030117 8.1634661,5.2060513 8.222991,5.1297852 8.3878468,5.0465434 8.5750244,4.9523733 8.6984919,4.8330912 8.7794084,4.6684679 c 0.054875,-0.1116091 0.06278,-0.1557876 0.06278,-0.3487317 0,-0.1944788 -0.00767,-0.2366344 -0.06464,-0.3525218 C 8.6973293,3.8039862 8.5685139,3.6853319 8.3683152,3.5905107 8.2213633,3.5208248 8.2013667,3.5175463 7.9237393,3.5175463 c -0.2776275,0 -0.2976241,0.00328 -0.444576,0.072964 -0.2001987,0.094821 -0.3290141,0.2134755 -0.4092331,0.3767037 -0.056967,0.1158874 -0.06464,0.158043 -0.06464,0.3525218 0,0.1929441 0.00791,0.2371226 0.06278,0.3487317 0.080916,0.1646233 0.204384,0.2839054 0.3915616,0.3780755 C 7.6244877,5.129785 7.6840125,5.2060509 7.659598,5.3030113 7.6361135,5.3964842 7.5572896,5.4557765 7.437775,5.4697276 7.1152714,5.5071632 7.0190086,5.5318102 6.8339236,5.6234226 6.6123332,5.7331714 6.350052,5.9717357 6.2377454,6.1654239 6.0684718,6.457235 6.0056917,6.8127562 6.0628913,7.1529312 6.1314843,7.5591416 6.4284109,7.9462854 6.8146246,8.1325329 7.0473759,8.244607 7.0992276,8.3025042 7.0766733,8.4236465 7.0583043,8.5213044 7.0159859,8.5517643 6.7843971,8.634076 5.8631577,8.9623925 5.0944505,9.7387728 4.7642738,10.674661 c -0.1348609,0.382261 -0.1739241,0.629428 -0.1755517,1.108882 -9.301e-4,0.236704 0.00651,0.458992 0.016276,0.494103 l 0.017904,0.06394 h 3.3008369 3.300837 z" />
</svg>
