<?xml version="1.0" encoding="UTF-8" standalone="no"?>
<svg
   id="svg12633"
   version="1.1"
   viewBox="0 0 11.430485 10.744804"
   height="10.744803mm"
   width="11.430485mm"
   sodipodi:docname="white-queen.svg"
   inkscape:version="1.2.2 (732a01da63, 2022-12-09)"
   xmlns:inkscape="http://www.inkscape.org/namespaces/inkscape"
   xmlns:sodipodi="http://sodipodi.sourceforge.net/DTD/sodipodi-0.dtd"
   xmlns="http://www.w3.org/2000/svg"
   xmlns:svg="http://www.w3.org/2000/svg"
   xmlns:rdf="http://www.w3.org/1999/02/22-rdf-syntax-ns#"
   xmlns:cc="http://creativecommons.org/ns#"
   xmlns:dc="http://purl.org/dc/elements/1.1/">
  <sodipodi:namedview
     id="namedview26"
     pagecolor="#ffffff"
     bordercolor="#000000"
     borderopacity="0.25"
     inkscape:showpageshadow="2"
     inkscape:pageopacity="0.0"
     inkscape:pagecheckerboard="0"
     inkscape:deskcolor="#d1d1d1"
     inkscape:document-units="mm"
     showgrid="false"
     inkscape:zoom="5.1033875"
     inkscape:cx="-14.794095"
     inkscape:cy="1.5675862"
     inkscape:window-width="2560"
     inkscape:window-height="1009"
     inkscape:window-x="-8"
     inkscape:window-y="-5"
     inkscape:window-maximized="1"
     inkscape:current-layer="svg12633" />
  <title
     id="title13821">chess board</title>
  <defs
     id="defs12627" />
  <metadata
     id="metadata12630">
    <rdf:RDF>
      <cc:Work
         rdf:about="">
        <dc:format>image/svg+xml</dc:format>
        <dc:type
           rdf:resource="http://purl.org/dc/dcmitype/StillImage" />
        <dc:title>chess board</dc:title>
        <dc:rights>
          <cc:Agent>
            <dc:title>CC0</dc:title>
          </cc:Agent>
        </dc:rights>
        <dc:creator>
          <cc:Agent>
            <dc:title>Glumbosch</dc:title>
          </cc:Agent>
        </dc:creator>
        <cc:license
           rdf:resource="http://creativecommons.org/publicdomain/zero/1.0/" />
      </cc:Work>
      <cc:License
         rdf:about="http://creativecommons.org/publicdomain/zero/1.0/">
        <cc:permits
           rdf:resource="http://creativecommons.org/ns#Reproduction" />
        <cc:permits
           rdf:resource="http://creativecommons.org/ns#Distribution" />
        <cc:permits
           rdf:resource="http://creativecommons.org/ns#DerivativeWorks" />
      </cc:License>
    </rdf:RDF>
  </metadata>
  <path
     d="M 4.1806011,10.741268 C 3.5021113,10.705693 2.8545464,10.543627 2.3588163,10.285531 2.116741,10.159273 2.0414282,10.090448 2.0414282,9.9953476 c 0,-0.03232 0.099309,-0.2864631 0.2206603,-0.5652532 L 2.4827489,8.923436 2.2753421,8.4472375 2.0678656,7.9708064 1.6437745,7.451592 C 1.4105349,7.1660589 1.2090341,6.9186589 1.1960131,6.901685 1.182992,6.8847111 1.0617335,5.9867235 0.92657028,4.9064412 L 0.68082116,2.9421224 0.52705648,2.8905032 C 0.33918129,2.8272581 0.22131751,2.740296 0.13140249,2.5989246 -0.02732647,2.3489669 -0.04252623,2.0792451 0.08726577,1.8156385 0.22017817,1.545661 0.46355094,1.4013133 0.785822,1.4013133 c 0.3222711,0 0.5656485,0.1443477 0.6985562,0.4143252 C 1.6384219,2.1285391 1.592918,2.4119795 1.3347989,2.7475041 1.3213826,2.764943 1.5498555,3.258813 1.9856655,4.1547079 L 2.6571333,5.535172 2.7547912,3.8389474 C 2.8082705,2.9060819 2.8529141,2.108775 2.8536117,2.0676192 2.8550068,2.0036765 2.8422183,1.9857725 2.7680448,1.9474069 2.6115596,1.8667229 2.4883247,1.7403489 2.4085707,1.5782833 2.2132549,1.1813737 2.3848538,0.73151963 2.8087356,0.52969331 3.0710168,0.40480746 3.3930553,0.46149554 3.6390602,0.67585463 c 0.057897,0.0505031 0.1290479,0.14857951 0.1743891,0.24072671 0.066035,0.13416336 0.076499,0.17952776 0.076499,0.33085096 0,0.1513233 -0.010463,0.1966877 -0.076499,0.330851 C 3.7683406,1.6696632 3.69812,1.7669026 3.643013,1.8141272 l -0.093938,0.080265 0.5773442,1.675763 C 4.4440399,4.4918598 4.7095763,5.2461508 4.7163194,5.2463833 4.7232994,5.2466158 4.8758273,4.401875 5.0550993,3.3694915 L 5.381091,1.4922049 5.2813405,1.4260998 C 5.05882,1.2787759 4.9367476,1.0505587 4.9365151,0.78190645 4.9360501,0.46928492 5.1088115,0.20949167 5.4129461,0.06465571 c 0.1811322,-0.08619472 0.4234168,-0.08619472 0.6045489,0 0.1895028,0.09024054 0.3127378,0.20938318 0.4001649,0.38688803 0.066035,0.13420985 0.076499,0.17943476 0.076266,0.33036271 C 6.4936935,1.0505587 6.3716211,1.2787759 6.1491006,1.4260998 l -0.09975,0.066105 0.3259913,1.877287 C 6.5546139,4.4018753 6.7071463,5.2466161 6.7141218,5.2463836 6.7208618,5.2461511 6.9864013,4.4918601 7.304022,3.5701555 L 7.8813657,1.8943926 7.7874281,1.8141272 C 7.7323211,1.7669026 7.6621005,1.6696632 7.6169918,1.5782833 7.421676,1.1813737 7.5932749,0.73151963 8.0171567,0.52969331 c 0.1811321,-0.0861947 0.4234167,-0.0861947 0.6045489,0 0.1895028,0.0902405 0.3127377,0.20938318 0.4001648,0.38688803 0.066035,0.13416336 0.076499,0.17952776 0.076499,0.33085096 0,0.1513233 -0.010463,0.1966877 -0.076499,0.330851 -0.079754,0.1620656 -0.2029889,0.2884396 -0.3594741,0.3691236 -0.074173,0.038366 -0.086962,0.05627 -0.085567,0.1202123 6.976e-4,0.041156 0.045341,0.8384627 0.098821,1.7713282 L 8.7733078,5.535172 9.4448221,4.1547079 C 9.8805623,3.258813 10.109128,2.764943 10.095642,2.7475041 9.8375464,2.4119795 9.7919727,2.1285391 9.9461326,1.8156385 10.078901,1.545661 10.322348,1.4013133 10.644619,1.4013133 c 0.322271,0 0.565718,0.1443477 0.698487,0.4143252 0.129978,0.2636066 0.114631,0.5333284 -0.04395,0.7832861 -0.08999,0.1413714 -0.207872,0.2283335 -0.395747,0.2915786 l -0.153695,0.051619 -0.245773,1.9643188 c -0.135322,1.0802825 -0.256464,1.9782701 -0.269485,1.995244 -0.01302,0.016974 -0.214615,0.2643739 -0.4478313,0.549907 L 9.3625105,7.9708064 9.1551037,8.4472375 8.9476969,8.923436 9.1683573,9.4300944 c 0.1213748,0.2787901 0.2206603,0.5329331 0.2206603,0.5652532 0,0.0951 -0.075336,0.1639254 -0.3173882,0.2901834 -0.384121,0.199966 -0.8512513,0.34157 -1.3786039,0.417836 -0.198106,0.0286 -0.5489769,0.03651 -1.8150418,0.03999 -0.8631098,0.0026 -1.626934,0.0016 -1.6973872,-0.0021 z"
     style="fill:#000000;stroke-width:0.0232519"
     id="path2396" />
  <path
     d="M 5.9031004,1.10155 C 6.0235451,1.020355 6.0872553,0.91000106 6.0872553,0.78239474 c 0,-0.28381245 -0.3318043,-0.47291999 -0.5599053,-0.3191553 -0.1204447,0.0812188 -0.1841549,0.19157223 -0.1841549,0.3191553 0,0.28383566 0.3318044,0.47291996 0.5599053,0.31915526 z"
     style="fill:#ffffff;stroke-width:0.0232519"
     id="path2411" />
  <path
     d="m 8.507311,1.5665876 c 0.1204447,-0.081195 0.1841549,-0.1915489 0.1841549,-0.3191553 0,-0.127583 -0.06371,-0.2379364 -0.1841549,-0.31915526 C 8.27921,0.77451235 7.9474057,0.96361989 7.9474057,1.2474323 c 0,0.2838357 0.3318043,0.47292 0.5599053,0.3191553 z"
     style="fill:#ffffff;stroke-width:0.0232519"
     id="path2409" />
  <path
     d="m 3.2988898,1.5665876 c 0.2474,-0.1667159 0.2474,-0.4715946 0,-0.63831056 -0.2281009,-0.15376469 -0.5599052,0.0353429 -0.5599052,0.31915526 0,0.2838357 0.3318043,0.47292 0.5599052,0.3191553 z"
     style="fill:#ffffff;stroke-width:0.0232519"
     id="path2407" />
  <path
     d="m 10.830174,2.4854554 c 0.120445,-0.060455 0.18648,-0.1736915 0.18648,-0.3194808 0,-0.2146148 -0.15044,-0.3604274 -0.37203,-0.3604274 -0.221591,0 -0.37203,0.1458126 -0.37203,0.3604274 0,0.2143823 0.150439,0.3601716 0.37203,0.3601716 0.05766,0 0.141139,-0.018136 0.18555,-0.040691 z"
     style="fill:#ffffff;stroke-width:0.0232519"
     id="path2405" />
  <path
     d="m 0.97137665,2.4854554 c 0.25160855,-0.1262577 0.25160855,-0.5129364 0,-0.6391941 -0.10351737,-0.052061 -0.26758263,-0.052061 -0.3711,0 -0.2516086,0.1262577 -0.2516086,0.5129364 0,0.6391941 0.0445041,0.022554 0.1280016,0.040691 0.18555,0.040691 0.0575484,0 0.1410459,-0.018136 0.18555,-0.040691 z"
     style="fill:#ffffff;stroke-width:0.0232519"
     id="path2403" />
  <path
     d="m 5.2250756,5.7446715 c 0.084172,-0.046039 0.2001987,-0.12277 0.2576308,-0.1706688 0.2085694,-0.1736916 0.2634438,-0.1757843 0.4448085,-0.017206 0.1034708,0.090682 0.4324849,0.2869282 0.4487613,0.2678616 0.010928,-0.012789 -0.6477974,-3.7865686 -0.661051,-3.7865686 -0.00651,0 -0.1569502,0.8396254 -0.3348271,1.8659633 -0.1776443,1.026338 -0.3278515,1.8789845 -0.3336644,1.8950283 -0.016509,0.044644 0.012789,0.035808 0.1783419,-0.05441 z"
     style="fill:#ffffff;stroke-width:0.0232519"
     id="path2401" />
  <path
     d="M 8.378263,5.9037143 C 8.3705899,5.8172173 8.3229236,4.9985186 8.2722345,4.0842547 8.2215454,3.1697583 8.1773668,2.3940756 8.1741115,2.3601278 8.1708563,2.3245524 7.9104352,3.0472209 7.5544489,4.0807669 7.2168316,5.0610662 6.9350188,5.8776722 6.9285083,5.8958087 c -0.019997,0.054409 0.3018094,0.011393 0.5299104,-0.070918 0.290881,-0.1048659 0.3334319,-0.1076562 0.4366703,-0.028367 0.086497,0.066035 0.4420182,0.2620486 0.4780586,0.2634438 0.010463,2.325e-4 0.012556,-0.069988 0.00512,-0.1562527 z"
     style="fill:#ffffff;stroke-width:0.0232519"
     id="path2399" />
  <path
     d="m 3.2335521,5.9764927 c 0.092542,-0.046504 0.2181026,-0.1206773 0.279255,-0.1653209 0.1304431,-0.0951 0.1597405,-0.09417 0.4592247,0.013719 0.2281009,0.082312 0.5499069,0.1253277 0.5299103,0.070918 C 4.4954316,5.8776722 4.2136188,5.0610662 3.8760015,4.0807669 3.5200152,3.0472209 3.2595942,2.3245524 3.2563389,2.3601278 c -0.00326,0.033948 -0.047434,0.8096305 -0.098123,1.7241269 -0.050689,0.9142639 -0.098355,1.7329626 -0.1060286,1.8194596 -0.00744,0.086265 -0.00767,0.1569502 -2.325e-4,0.1569502 0.00767,0 0.089287,-0.037901 0.1815973,-0.084172 z"
     style="fill:#ffffff;stroke-width:0.0232519"
     id="path2397" />
  <path
     d="m 10.085184,4.9096964 c 0.102308,-0.8173035 0.182992,-1.4888178 0.179272,-1.4925381 -0.006,-0.00581 -1.3002456,2.6444363 -1.3355885,2.7344211 -0.010696,0.02767 0.025112,0.029762 0.2294961,0.013719 0.4122558,-0.032088 0.389004,-0.036505 0.5689735,0.1095163 0.088822,0.072081 0.1636932,0.1285829 0.1664835,0.1257927 0.00302,-0.00302 0.089055,-0.6738395 0.1913634,-1.490911 z"
     style="fill:#ffffff;stroke-width:0.0232519"
     id="path2394" />
  <path
     d="m 1.8682017,6.1576248 c 0.046178,-0.024182 0.092682,-0.025345 0.2191954,-0.00581 0.225613,0.03511 0.4272068,0.033018 0.4125581,-0.00395 C 2.4655422,6.0595078 1.1717846,3.411351 1.1661111,3.417164 c -0.00374,0.00372 0.076429,0.6705842 0.1782025,1.4820748 0.1017502,0.8112581 0.1851314,1.4837025 0.1852942,1.4941658 1.628e-4,0.010463 0.063222,-0.03139 0.1401391,-0.093008 C 1.7466639,6.2387796 1.8359746,6.1746039 1.8682017,6.15763 Z"
     style="fill:#ffffff;stroke-width:0.0232519"
     id="path2392" />
  <path
     d="M 2.4848415,7.5590157 C 4.581231,6.8379749 6.8492194,6.8382074 8.9458414,7.5592482 9.0411741,7.5920333 9.1265085,7.6108673 9.1355768,7.6011016 9.1920788,7.5413442 9.7598897,6.8372773 9.7594247,6.8279765 9.7589597,6.821466 9.6843211,6.7579884 9.5934063,6.6866051 L 9.4280854,6.5570921 9.2981074,6.5784839 C 8.8949198,6.6447517 8.3017643,6.5145412 7.870907,6.2650485 l -0.1578803,-0.09138 -0.179272,0.058827 C 6.9485049,6.4245564 6.3609299,6.3431748 5.8372976,5.9971869 L 5.7152252,5.9165029 5.5931528,5.9971869 C 5.2966914,6.1929677 4.9551213,6.3094596 4.6095983,6.3322465 4.3689414,6.3480577 4.1594419,6.3187604 3.8966957,6.2324959 l -0.179272,-0.058827 -0.1578803,0.09138 C 3.1286861,6.5145412 2.5355306,6.6447517 2.1323198,6.5784839 L 2.0023185,6.5570921 1.8370674,6.6866051 c -0.090868,0.071383 -0.1631817,0.1369536 -0.1606472,0.1460218 0.00398,0.014184 0.6256615,0.7859136 0.6331021,0.7859136 0.00163,0 0.080452,-0.02674 0.1753192,-0.059525 z"
     style="fill:#ffffff;stroke-width:0.0232519"
     id="path2390" />
  <path
     d="m 3.3714357,8.4593284 c 1.5388094,-0.4980552 3.1487696,-0.4980552 4.687579,0 0.1957808,0.063245 0.40156,0.1346284 0.4573645,0.1585779 0.073709,0.031623 0.104866,0.03604 0.1132366,0.016276 0.00628,-0.015114 0.073941,-0.1699713 0.1499747,-0.3443604 L 8.9179392,7.9731316 8.8337674,7.9461595 C 7.276589,7.4481042 5.9091459,7.3195213 4.3782421,7.5271606 3.8008979,7.6052869 3.2774981,7.7285219 2.5966831,7.9461595 l -0.084172,0.026972 0.1383486,0.3166906 c 0.076034,0.1743891 0.1436967,0.3292467 0.1499747,0.3443604 0.00837,0.019764 0.039528,0.015346 0.1132366,-0.016276 0.055804,-0.023949 0.2615837,-0.095333 0.4573647,-0.1585781 z"
     style="fill:#ffffff;stroke-width:0.0232519"
     id="path2510" />
  <path
     d="m 3.3784113,9.4200961 c 0.4545742,-0.1123066 0.9500718,-0.1992686 1.4067387,-0.2474 0.3787731,-0.039761 1.4813773,-0.039761 1.8601504,0 0.6352414,0.066733 1.5304388,0.2501903 1.9938487,0.408303 0.092775,0.031623 0.1685761,0.053479 0.1685761,0.048131 0,-0.00512 -0.050922,-0.1274203 -0.1132366,-0.2718144 C 8.5598602,9.0450433 8.5812519,9.060157 7.988794,8.8636786 7.5853739,8.7297478 7.1221965,8.6255794 6.6220485,8.5560563 c -0.4076054,-0.056502 -1.4060412,-0.056502 -1.8136466,0 C 4.308254,8.6255794 3.8450765,8.7297478 3.4416564,8.8636786 2.8491985,9.060157 2.8705902,9.0450433 2.7359618,9.3573161 2.6736468,9.5017102 2.6227252,9.6240151 2.6227252,9.6291305 c 0,0.00535 0.075801,-0.016509 0.1685761,-0.048131 0.092775,-0.031622 0.3569164,-0.1039359 0.58711,-0.1609034 z"
     style="fill:#ffffff;stroke-width:0.0232519"
     id="path2512" />
  <path
     d="m 7.691635,10.285066 c 0.3222711,-0.04674 0.5231673,-0.09347 0.7875412,-0.18369 L 8.6968138,10.027203 8.5373059,9.9730258 C 8.2768848,9.8849012 7.6586173,9.739577 7.2847271,9.678657 6.7057553,9.5842544 6.3911574,9.5605375 5.7152252,9.5605375 c -0.6759321,0 -0.9905301,0.023717 -1.5695019,0.1181195 -0.3738902,0.06092 -0.9921577,0.2062442 -1.2525788,0.2943688 l -0.1595079,0.054177 0.2176376,0.07464 c 0.352266,0.120678 0.7780079,0.197176 1.2293269,0.220893 0.070221,0.0037 0.8342775,0.0046 1.6973873,0.0021 1.2632746,-0.0035 1.6171682,-0.01139 1.8136466,-0.03976 z"
     style="fill:#ffffff;stroke-width:0.0232519"
     id="path2514" />
</svg>
