<?xml version="1.0" encoding="UTF-8" standalone="no"?>
<svg
   id="svg12633"
   version="1.1"
   viewBox="0 0 15.847364 15.847366"
   height="15.847365mm"
   width="15.847363mm"
   sodipodi:docname="white-knight.svg"
   inkscape:version="1.2.2 (732a01da63, 2022-12-09)"
   xmlns:inkscape="http://www.inkscape.org/namespaces/inkscape"
   xmlns:sodipodi="http://sodipodi.sourceforge.net/DTD/sodipodi-0.dtd"
   xmlns="http://www.w3.org/2000/svg"
   xmlns:svg="http://www.w3.org/2000/svg"
   xmlns:rdf="http://www.w3.org/1999/02/22-rdf-syntax-ns#"
   xmlns:cc="http://creativecommons.org/ns#"
   xmlns:dc="http://purl.org/dc/elements/1.1/">
  <sodipodi:namedview
     id="namedview56"
     pagecolor="#ffffff"
     bordercolor="#000000"
     borderopacity="0.25"
     inkscape:showpageshadow="2"
     inkscape:pageopacity="0.0"
     inkscape:pagecheckerboard="0"
     inkscape:deskcolor="#d1d1d1"
     inkscape:document-units="mm"
     showgrid="false"
     inkscape:zoom="2.4467238"
     inkscape:cx="-11.23952"
     inkscape:cy="14.304843"
     inkscape:window-width="2560"
     inkscape:window-height="1009"
     inkscape:window-x="-8"
     inkscape:window-y="-5"
     inkscape:window-maximized="1"
     inkscape:current-layer="svg12633" />
  <title
     id="title13821">chess board</title>
  <defs
     id="defs12627" />
  <metadata
     id="metadata12630">
    <rdf:RDF>
      <cc:Work
         rdf:about="">
        <dc:format>image/svg+xml</dc:format>
        <dc:type
           rdf:resource="http://purl.org/dc/dcmitype/StillImage" />
        <dc:title>chess board</dc:title>
        <dc:rights>
          <cc:Agent>
            <dc:title>CC0</dc:title>
          </cc:Agent>
        </dc:rights>
        <dc:creator>
          <cc:Agent>
            <dc:title>Glumbosch</dc:title>
          </cc:Agent>
        </dc:creator>
        <cc:license
           rdf:resource="http://creativecommons.org/publicdomain/zero/1.0/" />
      </cc:Work>
      <cc:License
         rdf:about="http://creativecommons.org/publicdomain/zero/1.0/">
        <cc:permits
           rdf:resource="http://creativecommons.org/ns#Reproduction" />
        <cc:permits
           rdf:resource="http://creativecommons.org/ns#Distribution" />
        <cc:permits
           rdf:resource="http://creativecommons.org/ns#DerivativeWorks" />
      </cc:License>
    </rdf:RDF>
  </metadata>
  <path
     id="path2452"
     style="fill:#000000;stroke-width:0.0232519"
     d="M 5.5403652,13.038617 C 5.35249,12.944912 5.3245877,12.391982 5.4838631,11.923457 5.6201191,11.52306 5.7773019,11.311468 6.3781304,10.719707 6.9194342,10.186542 7.0635959,10.01099 7.2319395,9.6803482 7.4330682,9.2857638 7.5121246,8.9734911 7.5332838,8.4933398 c 0.00744,-0.1695062 0.00791,-0.3080874 0.00116,-0.3080874 -0.00674,0 -0.1209098,0.066268 -0.2534455,0.1474169 C 7.1484652,8.4135858 6.8501436,8.576349 6.6178573,8.694236 5.7366111,9.1416022 5.5982624,9.2729753 5.2050731,10.035637 c -0.073011,0.141604 -0.1795045,0.317156 -0.2369367,0.390167 -0.1832248,0.233681 -0.4780586,0.410163 -0.6847678,0.410163 -0.088218,0 -0.2498647,-0.06069 -0.3355014,-0.126026 -0.039924,-0.03046 -0.091473,-0.09719 -0.114562,-0.148347 -0.03797,-0.0844 -0.052154,-0.09464 -0.1498816,-0.109051 C 3.0159551,10.354188 2.5426166,9.7735883 2.5950728,9.1174202 2.6288113,8.6956311 2.8186164,8.273842 3.295931,7.5602418 3.6225966,7.0719523 3.7553649,6.8350157 3.8464425,6.5780824 3.8936438,6.4448491 3.8991312,6.3855568 3.9000148,5.9995756 L 3.9010146,5.5694159 3.9763275,5.410373 C 4.0390843,5.2778373 4.1051196,5.1983159 4.3721907,4.9337095 4.54844,4.7590878 4.7228291,4.5712126 4.7600321,4.5161057 l 0.06743,-0.099983 -0.051154,-0.6440771 c -0.07022,-0.8878033 -0.070453,-0.8855014 0.073941,-0.9461888 0.098355,-0.041342 0.093473,-0.043644 0.8368352,0.4036061 0.3429652,0.2063372 0.631521,0.3751691 0.6412868,0.3751691 0.00977,0 0.1934556,-0.1881077 0.408303,-0.4180223 0.3236662,-0.3464298 0.4043502,-0.4206265 0.4710831,-0.433136 0.142069,-0.026647 0.1755517,0.020903 0.4645726,0.6561448 l 0.2650714,0.5823201 0.1441617,-0.021136 c 0.2071742,-0.030344 0.7115075,-0.00358 0.9733237,0.051619 0.4757334,0.1002388 0.9479791,0.3047391 1.3302401,0.5759955 0.255306,0.1811322 0.666399,0.5968758 0.856599,0.8663651 0.411326,0.5824596 0.709415,1.2342098 0.982625,2.1489387 0.46899,1.570432 0.758011,3.4068661 0.765684,4.8663861 0.0023,0.45969 0.0014,0.471316 -0.05046,0.523167 l -0.05301,0.05325 -3.6440345,0.0056 c -2.8750949,0.0044 -3.6563581,-4.65e-4 -3.7021643,-0.02348 z" />
  <path
     id="path2390-0"
     style="fill:#ffffff;stroke-width:0.0232519"
     d="M 5.5538513,3.6241403 C 5.3480721,3.5006031 5.1769383,3.4023871 5.173218,3.4059214 5.169728,3.4094514 5.179268,3.5796362 5.19461,3.7841133 L 5.22228,4.1558876 5.575011,4.0023322 5.9279745,3.8487767 Z" />
  <path
     id="path2421"
     style="fill:#ffffff;stroke-width:0.0232519"
     d="m 12.600334,12.636825 c 0.0672,-0.06697 0.0672,-0.06999 -0.0051,-0.987043 C 12.460357,9.936584 12.042521,7.9204134 11.580971,6.7552617 11.445878,6.4141567 11.188247,5.9263322 11.009905,5.6740493 10.627179,5.132513 10.058205,4.6893322 9.4794662,4.4814604 9.1325481,4.3567373 8.8637564,4.3136516 8.4468502,4.3157907 8.19759,4.3170696 8.0022742,4.3304162 7.8895026,4.3538308 7.7941699,4.3735717 7.7037201,4.3851976 7.6890714,4.3796172 7.6741902,4.3738042 7.5804851,4.1893005 7.4807346,3.9694772 7.380984,3.7496307 7.2733278,3.5128801 7.2414727,3.4434035 L 7.1838081,3.3170295 6.8213113,3.6914313 6.4588145,4.0658098 5.8270609,4.3376475 5.1955398,4.6095783 5.04324,4.8134972 C 4.9593007,4.9255713 4.7858417,5.1143766 4.6572588,5.2329612 4.3124334,5.5510469 4.319874,5.5338405 4.3177813,6.0228275 4.3163862,6.3730008 4.3089456,6.4539174 4.264302,6.6041245 4.1762704,6.900121 3.980164,7.2695933 3.6474529,7.7667185 3.2824681,8.3119751 3.0925933,8.6744719 3.0383699,8.929545 2.9922847,9.1462526 3.0058405,9.417137 3.069946,9.5599035 3.1831361,9.8121864 3.4612983,10.012153 3.7342057,10.03773 L 3.883506,10.051681 4.0392471,9.8449716 C 4.124907,9.7315024 4.217775,9.6257063 4.2456308,9.6103601 c 0.1126088,-0.063013 0.2339836,-0.023019 0.2825801,0.093008 0.041156,0.097425 0.020694,0.1443942 -0.1767143,0.4073739 -0.08952,0.119049 -0.1593684,0.234146 -0.1552761,0.25577 0.013486,0.07115 0.1580663,0.06278 0.265955,-0.01535 C 4.6114526,10.243044 4.7112032,10.1033 4.9139595,9.7184813 5.0178955,9.5210729 5.1483385,9.2957621 5.2039105,9.2178683 5.4171302,8.9186167 5.7389362,8.6856328 6.4085904,8.3452253 7.0675487,8.0103982 7.6502408,7.6388332 7.8223047,7.4437499 8.0250611,7.2137888 8.111093,6.9456946 8.0908639,6.6057521 8.0757502,6.3509115 8.1015598,6.2748779 8.2164241,6.2348847 c 0.05813,-0.020229 0.089055,-0.018137 0.1502071,0.010928 0.097193,0.046271 0.1271878,0.1262578 0.1432316,0.382261 0.024647,0.3906315 -0.1504397,0.8521814 -0.4317874,1.138412 l -0.1543925,0.1571827 0.018601,0.1481145 c 0.027902,0.2208928 0,0.7229009 -0.053479,0.9621628 C 7.7832413,9.5054938 7.5849028,9.9544876 7.3251793,10.309079 7.2482153,10.41441 6.9608223,10.721567 6.6801722,10.99873 6.1795592,11.493297 6.0347,11.668384 5.9209983,11.917179 c -0.072546,0.158113 -0.1239326,0.401328 -0.1246301,0.58711 l -2.325e-4,0.145324 h 3.2887459 c 2.1673084,0 3.2936294,0.0079 3.3031624,0.02325 0.02813,0.04557 0.151835,0.02441 0.21229,-0.03604 z" />
  <path
     id="path2423"
     style="fill:#000000;stroke-width:0.0232519"
     d="M 4.6119176,6.4841448 C 4.7170161,6.2860388 5.0204532,5.7982144 5.0820706,5.7279937 5.2073983,5.5852271 5.401784,5.5240747 5.5503635,5.5805768 c 0.032785,0.012323 0.059757,0.03604 0.059757,0.052782 0,0.072313 -0.1885727,0.345523 -0.3494757,0.5059609 C 5.1278768,6.2718552 5.0381246,6.3374255 4.888615,6.4113664 4.7802612,6.4648458 4.6670246,6.5155349 4.6372622,6.523673 4.5865731,6.5378567 4.5847129,6.535299 4.6119176,6.4841448 Z" />
  <path
     id="path2425"
     style="fill:#000000;stroke-width:0.0232519"
     d="M 3.173161,9.3329652 C 3.18202,9.1488103 3.1967152,9.0739392 3.2446373,8.9693058 3.3080685,8.8307245 3.4115161,8.74353 3.5127083,8.7432975 c 0.1308383,-2.325e-4 0.260421,0.1306755 0.260421,0.2627462 0,0.1002156 -0.1002854,0.2081043 -0.3578929,0.3850512 l -0.2532595,0.173924 z" />
</svg>
